<mxfile host="app.diagrams.net" modified="2021-05-24T12:26:36.624Z" agent="5.0 (Macintosh; Intel Mac OS X 10_15_7) AppleWebKit/605.1.15 (KHTML, like Gecko) Version/14.1 Safari/605.1.15" etag="_huDxsNqDU76Dr8sgcpu" version="14.6.13" type="github">
  <diagram id="sHIM0QpbJnLFY3LBm0-a" name="Page-1">
    <mxGraphModel dx="1298" dy="865" grid="1" gridSize="10" guides="1" tooltips="1" connect="1" arrows="1" fold="1" page="1" pageScale="1" pageWidth="827" pageHeight="1169" math="0" shadow="0">
      <root>
        <mxCell id="0" />
        <mxCell id="1" parent="0" />
        <mxCell id="-vWQI5yqLPdNWUSGWjpU-2" value="EitaCommerceCore" style="rounded=1;whiteSpace=wrap;html=1;" parent="1" vertex="1">
          <mxGeometry x="430" y="240" width="120" height="60" as="geometry" />
        </mxCell>
        <mxCell id="-vWQI5yqLPdNWUSGWjpU-4" style="edgeStyle=orthogonalEdgeStyle;rounded=0;orthogonalLoop=1;jettySize=auto;html=1;entryX=0;entryY=0.5;entryDx=0;entryDy=0;" parent="1" source="-vWQI5yqLPdNWUSGWjpU-3" target="-vWQI5yqLPdNWUSGWjpU-2" edge="1">
          <mxGeometry relative="1" as="geometry" />
        </mxCell>
        <mxCell id="-vWQI5yqLPdNWUSGWjpU-3" value="EitaCommerceApp" style="rounded=1;whiteSpace=wrap;html=1;" parent="1" vertex="1">
          <mxGeometry x="220" y="240" width="120" height="60" as="geometry" />
        </mxCell>
        <mxCell id="MyflTnQby74XGAzKYzuh-2" value="" style="endArrow=none;dashed=1;html=1;dashPattern=1 3;strokeWidth=2;" edge="1" parent="1">
          <mxGeometry width="50" height="50" relative="1" as="geometry">
            <mxPoint x="710" y="880" as="sourcePoint" />
            <mxPoint x="710" y="350" as="targetPoint" />
          </mxGeometry>
        </mxCell>
        <mxCell id="MyflTnQby74XGAzKYzuh-3" value="Cart" style="swimlane;fontStyle=1;align=center;verticalAlign=top;childLayout=stackLayout;horizontal=1;startSize=26;horizontalStack=0;resizeParent=1;resizeParentMax=0;resizeLast=0;collapsible=1;marginBottom=0;" vertex="1" parent="1">
          <mxGeometry x="750" y="400" width="210" height="160" as="geometry" />
        </mxCell>
        <mxCell id="MyflTnQby74XGAzKYzuh-4" value="- items: [CartItemProtocol]" style="text;strokeColor=none;fillColor=none;align=left;verticalAlign=top;spacingLeft=4;spacingRight=4;overflow=hidden;rotatable=0;points=[[0,0.5],[1,0.5]];portConstraint=eastwest;" vertex="1" parent="MyflTnQby74XGAzKYzuh-3">
          <mxGeometry y="26" width="210" height="26" as="geometry" />
        </mxCell>
        <mxCell id="MyflTnQby74XGAzKYzuh-5" value="" style="line;strokeWidth=1;fillColor=none;align=left;verticalAlign=middle;spacingTop=-1;spacingLeft=3;spacingRight=3;rotatable=0;labelPosition=right;points=[];portConstraint=eastwest;" vertex="1" parent="MyflTnQby74XGAzKYzuh-3">
          <mxGeometry y="52" width="210" height="8" as="geometry" />
        </mxCell>
        <mxCell id="MyflTnQby74XGAzKYzuh-6" value="+ getCartItems(): [CartItemProtocol]&#xa;+ addItem(CartItemProtocol)&#xa;+ editItem(CartItemProtocol)&#xa;+ removeItem(CartItemProtocol)&#xa;+ removeAllItems()&#xa;+ getTotalPrice(): Double" style="text;strokeColor=none;fillColor=none;align=left;verticalAlign=top;spacingLeft=4;spacingRight=4;overflow=hidden;rotatable=0;points=[[0,0.5],[1,0.5]];portConstraint=eastwest;" vertex="1" parent="MyflTnQby74XGAzKYzuh-3">
          <mxGeometry y="60" width="210" height="100" as="geometry" />
        </mxCell>
        <mxCell id="MyflTnQby74XGAzKYzuh-7" value="EitaCommerceCore" style="text;html=1;strokeColor=none;fillColor=none;align=center;verticalAlign=middle;whiteSpace=wrap;rounded=0;fontStyle=1;fontSize=20;" vertex="1" parent="1">
          <mxGeometry x="1010" y="300" width="160" height="20" as="geometry" />
        </mxCell>
        <mxCell id="MyflTnQby74XGAzKYzuh-19" style="edgeStyle=none;rounded=0;sketch=0;orthogonalLoop=1;jettySize=auto;html=1;dashed=1;fontSize=20;startArrow=none;startFill=0;endArrow=classic;endFill=0;entryX=1.01;entryY=0.21;entryDx=0;entryDy=0;entryPerimeter=0;" edge="1" parent="1" source="MyflTnQby74XGAzKYzuh-17" target="MyflTnQby74XGAzKYzuh-6">
          <mxGeometry relative="1" as="geometry" />
        </mxCell>
        <mxCell id="MyflTnQby74XGAzKYzuh-17" value="&lt;p style=&quot;margin: 0px ; margin-top: 4px ; text-align: center&quot;&gt;&lt;i&gt;&amp;lt;&amp;lt;Interface&amp;gt;&amp;gt;&lt;/i&gt;&lt;br&gt;&lt;b&gt;CartItemProtocol&lt;/b&gt;&lt;/p&gt;&lt;hr size=&quot;1&quot;&gt;&lt;p style=&quot;margin: 0px ; margin-left: 4px&quot;&gt;+ product: ProductProtocol&lt;br&gt;+ productsCount: Int&lt;/p&gt;&lt;hr size=&quot;1&quot;&gt;&lt;p style=&quot;margin: 0px ; margin-left: 4px&quot;&gt;+ ItemPrice(): Double&lt;br&gt;+ productPrice(): Double&lt;/p&gt;&lt;p style=&quot;margin: 0px ; margin-left: 4px&quot;&gt;+ setProductCounts(Int)&lt;/p&gt;" style="verticalAlign=top;align=left;overflow=fill;fontSize=12;fontFamily=Helvetica;html=1;" vertex="1" parent="1">
          <mxGeometry x="1040" y="410" width="190" height="140" as="geometry" />
        </mxCell>
        <mxCell id="MyflTnQby74XGAzKYzuh-21" style="edgeStyle=none;rounded=0;sketch=0;orthogonalLoop=1;jettySize=auto;html=1;entryX=1;entryY=0.5;entryDx=0;entryDy=0;dashed=1;fontSize=20;startArrow=none;startFill=0;endArrow=classic;endFill=0;" edge="1" parent="1" source="MyflTnQby74XGAzKYzuh-18" target="MyflTnQby74XGAzKYzuh-17">
          <mxGeometry relative="1" as="geometry" />
        </mxCell>
        <mxCell id="MyflTnQby74XGAzKYzuh-18" value="&lt;p style=&quot;margin: 0px ; margin-top: 4px ; text-align: center&quot;&gt;&lt;i&gt;&amp;lt;&amp;lt;Interface&amp;gt;&amp;gt;&lt;/i&gt;&lt;br&gt;&lt;b&gt;ProductProtocol&lt;/b&gt;&lt;/p&gt;&lt;hr size=&quot;1&quot;&gt;&lt;p style=&quot;margin: 0px ; margin-left: 4px&quot;&gt;+ id: ProductProtocol&lt;br&gt;+ productName: String&lt;/p&gt;&lt;p style=&quot;margin: 0px ; margin-left: 4px&quot;&gt;+ price: Double&lt;/p&gt;&lt;p style=&quot;margin: 0px ; margin-left: 4px&quot;&gt;&lt;br&gt;&lt;/p&gt;" style="verticalAlign=top;align=left;overflow=fill;fontSize=12;fontFamily=Helvetica;html=1;" vertex="1" parent="1">
          <mxGeometry x="1300" y="432.5" width="150" height="95" as="geometry" />
        </mxCell>
      </root>
    </mxGraphModel>
  </diagram>
</mxfile>
